<svg width="452" height="68" viewBox="0 0 452 68" fill="none" xmlns="http://www.w3.org/2000/svg">
<path d="M79.267 52.5369C87.4744 52.5369 93.304 48.625 95.375 42.4886H85.7102C84.7898 44.1761 82.8722 45.0966 80.7244 45.0966C77.5795 45.0966 76.1222 43.0256 76.5824 40.1875L76.6783 39.7273H95.8352L96.2188 37.2727C97.7528 27.9148 92.9972 22.1619 84.0994 22.1619C74.9716 22.1619 68.1449 28.2216 66.6108 37.3494C65 46.8608 69.8324 52.5369 79.267 52.5369ZM77.7713 33.8977C78.3658 31.3089 80.6286 29.6023 83.179 29.6023C85.7869 29.6023 87.3977 31.3665 87.0142 33.8977H77.7713ZM128.229 32.1335C129.053 25.9205 124.24 22.1619 115.419 22.1619C107.327 22.1619 101.9 25.2685 100.922 31.1364C100.097 36.0455 102.839 39.3054 108.669 40.3409L113.731 41.2614C115.975 41.7024 116.646 42.0284 116.569 42.8722C116.358 44.3679 114.441 45.4801 112.197 45.4034C110.126 45.3651 108.803 44.4062 108.746 42.4886H98.4672C98.0645 48.4716 102.763 52.5369 112.044 52.5369C119.944 52.5369 126.273 48.9126 127.308 42.8722C128.037 38.2507 125.314 35.4318 119.484 34.358L113.655 33.2841C111.488 32.8622 111.219 32.3445 111.354 31.75C111.564 30.2543 113.54 29.2188 115.649 29.2188C117.452 29.2188 118.851 30.2926 118.717 32.1335H128.229ZM152.304 22.5455H147.222L148.392 15.4886H137.807L136.637 22.5455H132.898L131.594 30.2159H135.372L133.166 43.5241C132.016 49.6605 135.314 52.7862 142.754 52.4219C145.132 52.3068 146.973 51.8082 148.047 51.5014L147.74 44.0611C147.28 44.1378 146.206 44.3679 145.593 44.3679C144.212 44.3679 143.694 43.7543 143.905 42.527L145.957 30.2159H151L152.304 22.5455ZM151.714 52H162.3L167.209 22.5455H156.624L151.714 52ZM162.376 19.4773C165.253 19.4773 167.938 17.2912 168.359 14.6449C168.781 11.9602 166.825 9.8125 163.949 9.8125C161.072 9.8125 158.388 11.9602 157.928 14.6449C157.467 17.2912 159.5 19.4773 162.376 19.4773ZM195.556 63.0455L202.229 22.5455H191.721L190.858 27.6847H190.628C189.995 24.6932 187.617 22.1619 183.245 22.1619C177.415 22.1619 171.03 26.6108 169.265 37.2727C167.578 47.4744 172.084 52.3835 178.374 52.3835C182.516 52.3835 185.719 50.1591 187.387 47.1676H187.617L184.971 63.0455H195.556ZM189.439 37.2727C188.71 41.5682 186.524 44.2528 183.609 44.2528C180.694 44.2528 179.486 41.6449 180.157 37.2727C180.925 32.9006 183.015 30.2926 185.93 30.2926C188.844 30.2926 190.206 32.9006 189.439 37.2727ZM223.903 39.1136C223.462 42.0284 221.468 43.7926 218.841 43.7926C216.175 43.7926 214.948 42.0284 215.389 39.1136L218.15 22.5455H207.565L204.42 41.3381C203.365 47.7812 206.664 52.3835 212.858 52.3835C217.249 52.3835 221.084 50.1591 222.906 46.4006H223.213L222.292 52H232.341L237.25 22.5455H226.664L223.903 39.1136ZM251.761 52.5369C259.969 52.5369 265.798 48.625 267.869 42.4886H258.204C257.284 44.1761 255.366 45.0966 253.219 45.0966C250.074 45.0966 248.616 43.0256 249.077 40.1875L249.172 39.7273H268.329L268.713 37.2727C270.247 27.9148 265.491 22.1619 256.594 22.1619C247.466 22.1619 240.639 28.2216 239.105 37.3494C237.494 46.8608 242.327 52.5369 251.761 52.5369ZM250.265 33.8977C250.86 31.3089 253.123 29.6023 255.673 29.6023C258.281 29.6023 259.892 31.3665 259.508 33.8977H250.265ZM317.598 32.1335C318.422 25.9205 313.609 22.1619 304.788 22.1619C296.696 22.1619 291.269 25.2685 290.291 31.1364C289.466 36.0455 292.208 39.3054 298.038 40.3409L303.1 41.2614C305.344 41.7024 306.015 42.0284 305.939 42.8722C305.728 44.3679 303.81 45.4801 301.566 45.4034C299.495 45.3651 298.172 44.4062 298.115 42.4886H287.836C287.434 48.4716 292.132 52.5369 301.413 52.5369C309.314 52.5369 315.642 48.9126 316.677 42.8722C317.406 38.2507 314.683 35.4318 308.853 34.358L303.024 33.2841C300.857 32.8622 300.588 32.3445 300.723 31.75C300.934 30.2543 302.909 29.2188 305.018 29.2188C306.821 29.2188 308.221 30.2926 308.086 32.1335H317.598ZM333.236 52.5369C341.443 52.5369 347.273 48.625 349.344 42.4886H339.679C338.759 44.1761 336.841 45.0966 334.693 45.0966C331.548 45.0966 330.091 43.0256 330.551 40.1875L330.647 39.7273H349.804L350.188 37.2727C351.722 27.9148 346.966 22.1619 338.068 22.1619C328.94 22.1619 322.114 28.2216 320.58 37.3494C318.969 46.8608 323.801 52.5369 333.236 52.5369ZM331.74 33.8977C332.335 31.3089 334.597 29.6023 337.148 29.6023C339.756 29.6023 341.366 31.3665 340.983 33.8977H331.74Z" fill="#5965E0"/>
<path d="M276.561 52.6136C279.322 52.6136 282.16 50.2358 282.467 47.2443C282.774 44.3295 280.549 41.9517 277.711 41.9517C274.72 41.9517 272.035 44.3295 271.728 47.2443C271.422 50.2358 273.569 52.6136 276.561 52.6136Z" fill="#4CD62B"/>
<path d="M25.6131 14H37.6358L27.634 63.0229H15.6113L25.6131 14Z" fill="#5965E0"/>
<path d="M43.2537 14H55.2764L47.4836 52.4104H35.458L43.2537 14Z" fill="#5965E0"/>
<path d="M7.79566 14H19.8184L12.0256 52.4104H0L7.79566 14Z" fill="#5965E0"/>
</svg>
