<svg width="477" height="84" viewBox="0 0 477 84" fill="none" xmlns="http://www.w3.org/2000/svg">
<path d="M108.494 68.696C119.134 68.696 126.69 63.625 129.375 55.6705H116.847C115.653 57.858 113.168 59.0511 110.384 59.0511C106.307 59.0511 104.418 56.3665 105.014 52.6875L105.138 52.0909H129.972L130.469 48.9091C132.457 36.7784 126.293 29.321 114.759 29.321C102.926 29.321 94.0767 37.1761 92.0881 49.0085C90 61.3381 96.2642 68.696 108.494 68.696ZM106.555 44.5341C107.326 41.1783 110.259 38.9659 113.565 38.9659C116.946 38.9659 119.034 41.2528 118.537 44.5341H106.555ZM171.963 42.2472C173.032 34.1932 166.792 29.321 155.358 29.321C144.868 29.321 137.833 33.348 136.565 40.9545C135.496 47.3182 139.051 51.544 146.608 52.8864L153.17 54.0795C156.079 54.6513 156.949 55.0739 156.849 56.1676C156.576 58.1065 154.09 59.5483 151.182 59.4489C148.497 59.3991 146.782 58.1562 146.707 55.6705H133.383C132.861 63.4261 138.952 68.696 150.983 68.696C161.224 68.696 169.427 63.9979 170.77 56.1676C171.714 50.1768 168.184 46.5227 160.628 45.1307L153.071 43.7386C150.262 43.1918 149.914 42.5206 150.088 41.75C150.361 39.8111 152.922 38.4688 155.656 38.4688C157.993 38.4688 159.807 39.8608 159.633 42.2472H171.963ZM203.172 29.8182H196.585L198.101 20.6705H184.379L182.863 29.8182H178.016L176.325 39.7614H181.222L178.364 57.0128C176.872 64.9673 181.148 69.0192 190.793 68.5469C193.875 68.3977 196.262 67.7514 197.654 67.3537L197.256 57.7088C196.659 57.8082 195.267 58.1065 194.472 58.1065C192.682 58.1065 192.011 57.3111 192.284 55.7202L194.944 39.7614H201.482L203.172 29.8182ZM202.408 68H216.129L222.493 29.8182H208.771L202.408 68ZM216.229 25.8409C219.957 25.8409 223.438 23.0071 223.984 19.5767C224.531 16.0966 221.996 13.3125 218.267 13.3125C214.538 13.3125 211.058 16.0966 210.462 19.5767C209.865 23.0071 212.5 25.8409 216.229 25.8409ZM259.239 82.3182L267.89 29.8182H254.268L253.149 36.4801H252.851C252.03 32.6023 248.948 29.321 243.28 29.321C235.724 29.321 227.446 35.0881 225.159 48.9091C222.971 62.1335 228.813 68.4972 236.966 68.4972C242.336 68.4972 246.487 65.6136 248.65 61.7358H248.948L245.518 82.3182H259.239ZM251.309 48.9091C250.365 54.4773 247.531 57.9574 243.753 57.9574C239.974 57.9574 238.408 54.5767 239.278 48.9091C240.273 43.2415 242.982 39.8608 246.76 39.8608C250.539 39.8608 252.304 43.2415 251.309 48.9091ZM295.985 51.2955C295.414 55.0739 292.828 57.3608 289.423 57.3608C285.968 57.3608 284.377 55.0739 284.949 51.2955L288.528 29.8182H274.806L270.73 54.179C269.363 62.5312 273.638 68.4972 281.667 68.4972C287.36 68.4972 292.331 65.6136 294.693 60.7415H295.091L293.897 68H306.923L313.287 29.8182H299.565L295.985 51.2955ZM332.098 68.696C342.737 68.696 350.294 63.625 352.979 55.6705H340.45C339.257 57.858 336.771 59.0511 333.987 59.0511C329.91 59.0511 328.021 56.3665 328.618 52.6875L328.742 52.0909H353.575L354.072 48.9091C356.061 36.7784 349.896 29.321 338.362 29.321C326.53 29.321 317.68 37.1761 315.692 49.0085C313.604 61.3381 319.868 68.696 332.098 68.696ZM330.159 44.5341C330.93 41.1783 333.863 38.9659 337.169 38.9659C340.55 38.9659 342.638 41.2528 342.14 44.5341H330.159ZM417.441 42.2472C418.51 34.1932 412.271 29.321 400.836 29.321C390.346 29.321 383.311 33.348 382.044 40.9545C380.975 47.3182 384.529 51.544 392.086 52.8864L398.649 54.0795C401.557 54.6513 402.427 55.0739 402.328 56.1676C402.054 58.1065 399.569 59.5483 396.66 59.4489C393.975 59.3991 392.26 58.1562 392.186 55.6705H378.862C378.34 63.4261 384.43 68.696 396.461 68.696C406.703 68.696 414.906 63.9979 416.248 56.1676C417.193 50.1768 413.663 46.5227 406.106 45.1307L398.549 43.7386C395.74 43.1918 395.392 42.5206 395.566 41.75C395.84 39.8111 398.4 38.4688 401.135 38.4688C403.471 38.4688 405.286 39.8608 405.112 42.2472H417.441ZM437.713 68.696C448.352 68.696 455.909 63.625 458.594 55.6705H446.065C444.872 57.858 442.386 59.0511 439.602 59.0511C435.526 59.0511 433.636 56.3665 434.233 52.6875L434.357 52.0909H459.19L459.688 48.9091C461.676 36.7784 455.511 29.321 443.977 29.321C432.145 29.321 423.295 37.1761 421.307 49.0085C419.219 61.3381 425.483 68.696 437.713 68.696ZM435.774 44.5341C436.545 41.1783 439.478 38.9659 442.784 38.9659C446.165 38.9659 448.253 41.2528 447.756 44.5341H435.774Z" fill="white"/>
<path d="M364.245 68.7955C367.825 68.7955 371.504 65.7131 371.902 61.8352C372.299 58.0568 369.416 54.9744 365.737 54.9744C361.859 54.9744 358.379 58.0568 357.981 61.8352C357.583 65.7131 360.368 68.7955 364.245 68.7955Z" fill="#4CD62B"/>
<path d="M36.7338 13H53.9765L39.6321 83.3077H22.3894L36.7338 13Z" fill="white"/>
<path d="M62.0337 13H79.2764L68.1001 68.0875H50.8533L62.0337 13Z" fill="white"/>
<path d="M11.1804 13H28.4231L17.2468 68.0875H0L11.1804 13Z" fill="white"/>
</svg>
